<?xml version="1.0" encoding="utf-8"?><svg xmlns="http://www.w3.org/2000/svg" xmlns:xlink="http://www.w3.org/1999/xlink"><symbol id="audio" viewBox="0 0 200 200" xmlns="http://www.w3.org/2000/svg"><defs><style>.acls-1{fill:#231f20}</style></defs><path class="acls-1" d="M100 175.69a5 5 0 01-3.37-1.31L48.06 130H29.31a5 5 0 01-5-5V75a5 5 0 015-5h18.75l48.57-44.38a5 5 0 018.37 3.69v141.38a5 5 0 01-5 5zM34.31 120H50a5 5 0 013.37 1.31l41.63 38V40.65l-41.63 38A5 5 0 0150 80H34.31zm85.09 2.53a5 5 0 01-3.54-8.53 19.82 19.82 0 000-28 5 5 0 017.07-7.07 29.83 29.83 0 010 42.14 5 5 0 01-3.53 1.46z"/><path class="acls-1" d="M137.08 140.21a5 5 0 01-3.54-8.54 44.78 44.78 0 000-63.34 5 5 0 117.07-7.07 54.78 54.78 0 010 77.48 5 5 0 01-3.53 1.47z"/><path class="acls-1" d="M152 155.13a5 5 0 01-3.54-8.53 65.91 65.91 0 000-93.2 5 5 0 117.07-7.07 75.9 75.9 0 010 107.34 5 5 0 01-3.53 1.46z"/></symbol><symbol viewBox="0 0 22 24" id="basket" xmlns="http://www.w3.org/2000/svg"><g clip-path="url(#bclip0)"><path d="M10.363 18.443a2.046 2.046 0 00-2.045 2.042 2.046 2.046 0 004.09 0 2.046 2.046 0 00-2.045-2.042zm6.134 0a2.046 2.046 0 00-2.045 2.042 2.046 2.046 0 004.089 0 2.046 2.046 0 00-2.044-2.042zm3.978-8.199L7.413 6.891a.614.614 0 00-.75.73L8.67 16.4h-.786L5.482 5.895a.613.613 0 00-.474-.464l-4.27-.882A.614.614 0 00.489 5.75l3.885.802L6.797 17.15a.613.613 0 00.598.477h12.07a.615.615 0 00.607-.53l.858-6.175a.613.613 0 00-.455-.678zm-8.14 3.91a.613.613 0 01-1.227 0v-2.696a.613.613 0 011.227 0v2.696zm2.625 0a.613.613 0 01-1.227 0v-1.88a.613.613 0 011.227 0v1.88zm2.625 0a.613.613 0 01-1.227 0v-1.226a.613.613 0 011.227 0v1.226z"/></g><path fill-rule="evenodd" clip-rule="evenodd" d="M16.268 4.568a2.996 2.996 0 00-1.693-.523c-.627 0-1.21.193-1.693.523-.28-.843-.492-1.752-.492-2.383C12.39.98 13.37 0 14.575 0s2.185.98 2.185 2.185c0 .631-.212 1.54-.492 2.383zm-4.722 2.274l.024.006v-.011l-.024.005zm4.972 1.217c-1.333-.33-2.766-.681-4.129-1.013a2.185 2.185 0 114.129 1.013zm4.436 1.103c-.866-.217-2.155-.538-3.618-.9a2.995 2.995 0 00.243-1.425c.87.18 1.762.45 2.308.765.596.344.969.928 1.067 1.56zM9.869 6.439c-.36-.086-.706-.167-1.03-.243a2.19 2.19 0 01-.376-2.667 2.188 2.188 0 013.147-.7c.098.738.338 1.599.61 2.353a3.01 3.01 0 00-.449.774c-.628.113-1.305.278-1.902.483zm10.124.075a3.43 3.43 0 01-.217.114c-.696-.295-1.587-.526-2.397-.672a3.01 3.01 0 00-.449-.774c.262-.727.494-1.553.599-2.273.095-.067.189-.128.278-.18a2.188 2.188 0 012.986.8 2.188 2.188 0 01-.8 2.985z"/><defs><clipPath id="bclip0"><path transform="translate(0 3.064)" d="M0 0h20.936v20.936H0z"/></clipPath></defs></symbol><symbol viewBox="0 0 344.96 344.96" id="check" xmlns="http://www.w3.org/2000/svg"><g data-name="Слой 2"><path d="M321.85 86.24l-40-23.11-23.1-40H212.5L172.48 0l-40 23.11H86.24l-23.11 40-40 23.1v46.21L0 172.48l23.11 40v46.21l40 23.11 23.11 40h46.21l40 23.1 40-23.11h46.21l23.11-40 40-23.11V212.5l23.11-40-23.11-40V86.24zM156.91 243.07a16.79 16.79 0 01-23.34 0l-50.45-50.44a16.19 16.19 0 010-22.89l13.35-13.35a16.19 16.19 0 0122.89 0l25.87 25.87 80.34-80.35a16.19 16.19 0 0122.89 0l13.35 13.35a16.19 16.19 0 010 22.89z" data-name="Capa 1"/></g></symbol><symbol viewBox="0 0 7 13" id="chevron-left" xmlns="http://www.w3.org/2000/svg"><path d="M6.5 1L1 6.5 6.5 12"/></symbol><symbol viewBox="0 0 23 44" id="chevron-left-brown" xmlns="http://www.w3.org/2000/svg"><path d="M22 1L1 22l21 21"/></symbol><symbol viewBox="0 0 7 13" id="chevron-right" xmlns="http://www.w3.org/2000/svg"><path d="M.5 12L6 6.5.5 1"/></symbol><symbol viewBox="0 0 23 44" id="chevron-right-brown" xmlns="http://www.w3.org/2000/svg"><path d="M1 43l21-21L1 1"/></symbol><symbol viewBox="0 0 24 24" id="fb" xmlns="http://www.w3.org/2000/svg"><path d="M13.397 20.997v-8.196h2.765l.411-3.209h-3.176V7.548c0-.926.258-1.56 1.587-1.56h1.684v-2.86A22.108 22.108 0 0014.201 3c-2.444 0-4.122 1.492-4.122 4.231v2.355H7.332v3.21h2.753v8.201h3.312z"/></symbol><symbol viewBox="0 0 24 24" id="instagram" xmlns="http://www.w3.org/2000/svg"><path d="M11.999 7.377a4.624 4.624 0 100 9.248 4.624 4.624 0 000-9.248zm0 7.627a3.004 3.004 0 110-6.008 3.004 3.004 0 010 6.008zm4.807-6.719a1.078 1.078 0 100-2.156 1.078 1.078 0 000 2.156z"/><path d="M20.533 6.11A4.605 4.605 0 0017.9 3.48a6.607 6.607 0 00-2.186-.42c-.963-.042-1.268-.054-3.71-.054s-2.755 0-3.71.054a6.554 6.554 0 00-2.184.42 4.6 4.6 0 00-2.633 2.63 6.585 6.585 0 00-.419 2.186c-.043.962-.056 1.267-.056 3.71 0 2.442 0 2.753.056 3.71.015.748.156 1.486.419 2.187a4.61 4.61 0 002.634 2.632 6.583 6.583 0 002.185.45c.963.042 1.268.055 3.71.055s2.755 0 3.71-.055a6.616 6.616 0 002.186-.42 4.613 4.613 0 002.633-2.632c.263-.7.404-1.438.419-2.186.043-.962.056-1.267.056-3.71s0-2.753-.056-3.71a6.583 6.583 0 00-.421-2.217zm-1.218 9.533a5.046 5.046 0 01-.311 1.688 2.987 2.987 0 01-1.712 1.71c-.535.2-1.1.305-1.67.312-.95.044-1.218.055-3.654.055-2.438 0-2.687 0-3.655-.055a4.961 4.961 0 01-1.67-.311 2.984 2.984 0 01-1.718-1.711 5.08 5.08 0 01-.311-1.67c-.043-.95-.053-1.217-.053-3.653 0-2.437 0-2.686.053-3.655a5.038 5.038 0 01.311-1.687c.305-.79.93-1.41 1.719-1.712a5.01 5.01 0 011.669-.311c.95-.043 1.218-.055 3.655-.055s2.687 0 3.654.055a4.96 4.96 0 011.67.31 2.99 2.99 0 011.712 1.713 5.06 5.06 0 01.311 1.669c.043.95.054 1.218.054 3.655 0 2.436 0 2.698-.043 3.654h-.011v-.001z"/></symbol><symbol class="jsvg-inline--fa jfa-music jfa-w-16" viewBox="0 0 512 512" id="music-solid" xmlns="http://www.w3.org/2000/svg"><path d="M470.38 1.51L150.41 96A32 32 0 00128 126.51v261.41A139 139 0 0096 384c-53 0-96 28.66-96 64s43 64 96 64 96-28.66 96-64V214.32l256-75v184.61a138.4 138.4 0 00-32-3.93c-53 0-96 28.66-96 64s43 64 96 64 96-28.65 96-64V32a32 32 0 00-41.62-30.49z"/></symbol><symbol viewBox="0 0 640 1280" id="note-piano" xmlns="http://www.w3.org/2000/svg"><path d="M416.5.9c-26.9 7.1-69.1 55.6-93.7 107.8-21.8 46.2-29.4 117.4-21.2 197.8 3.2 31.4 11 80.5 13.1 82.6.5.5 2.3.3 4.1-.3l3.2-1.2 8.7 9.3c4.9 5.1 10 11.4 11.5 13.9 3 5 43.3 48.2 45 48.2 1.9 0 8.8-8 8.8-10.1 0-1.3-7.5-9.8-20.7-23.6-22.2-23-20.5-21.7-28.3-19.8-2.2.6-3.8-.6-12.3-9.4-5.3-5.5-9.7-10.5-9.7-11.2 0-.6 1.9-2.9 4.3-5 8-7.4 5.2-9.2 41.4 27.6 23.6 24 32.6 32.6 33.4 31.8.8-.8-7.2-9.6-29.6-32.5-16.9-17.2-31.4-32.3-32.2-33.6-1.4-2-1.4-2.5.1-4.6 1.4-2.3 1.4-3.7-.9-18.3-4.1-26.3-5.6-45.3-6.2-77.3-.6-33.7.5-48.4 5.2-71.9 5.1-24.8 15.9-51.5 29-71.2 13.3-20 32.6-33.6 49-34.7 11.1-.7 18.1 2.7 24.9 12.2 1 1.5 2.4 1.9 5.7 1.8 3.6-.2 5.1.3 7.9 2.6l3.5 3-3.3 3c-1.7 1.6-3.2 3.7-3.2 4.6 0 1.8 8.4 7.6 11 7.6.9 0 2.5-.7 3.6-1.5 2.7-2.1 4.7-1.8 7.3.9 3.8 4 2.5 5.8-6.4 8.9-4.4 1.6-8.7 3.2-9.5 3.6-1.2.7-1.5 4.4-1.5 22.2-.1 18.1-.4 23.1-2.3 32.1-6.3 30.2-19.1 61.4-38.3 93.4-4.4 7.2-7.9 13.8-7.9 14.7 0 .9 3.8 4 8.8 7.3 4.8 3.1 8.9 5.8 9.1 6 .4.4.8 2.8 1 6.1.1 1.8 38.1 27.3 40.6 27.3 2.6 0 7.8-8.7 7.3-12.2-.2-1.6-4.6-4.9-16.8-12.5-21.1-13.2-23.3-14.4-25.1-13.2-.8.5-2.3.9-3.3.9-3 0-17.6-9.9-17.6-12 0-1.7 5.1-8.8 7.3-10.2 1.8-1.1 7.4 1.8 16.6 8.5 12.4 9.1 13.2 9.7 28.3 18.1 7.5 4.2 14.3 7.6 15.2 7.6 3.7 0 8-11.6 5.5-14.6-1.4-1.7-36.1-19.4-38.1-19.4-.6 0-2.5 1.2-4 2.7l-2.9 2.8-8.5-4.4c-5.6-2.8-8.4-4.8-8.4-6 0-.9 1.3-3.8 3-6.4 2.2-3.5 3.6-4.7 5.4-4.7 1.3 0 14.2 5.4 28.7 12 25.4 11.6 32.5 14.1 28.7 10.3-.9-.9-13.5-7.1-28-13.8-25-11.7-26.3-12.4-26.6-15.2-.2-2 .7-4.2 2.8-7.2 2.9-3.9 3.4-4.2 6.3-3.5 1.8.3 5.3 1.7 8 3 4.2 2.2 4.7 2.8 4.7 5.9 0 2.6.6 3.9 2.5 5.1 4.5 2.9 33.7 14.6 35.1 14 3.2-1.2 5-11.6 2.6-14.6-2.2-2.6-32.6-13.4-36-12.7-2.9.6-11.4-1.7-14.9-4-3.1-2.1-3-6.7.3-11 2-2.6 3.2-3.3 6-3.3 4 0 8.4 1.7 13.4 5.1 2 1.3 10.2 4.4 18.3 6.8 17.1 5.2 17.4 5.1 18.4-4.1.4-4.1.2-5.8-1-7-1.5-1.4-26.1-7.8-30.1-7.8-1.1 0-3.1 1.4-4.6 3.1-2.6 3.2-2.6 3.2-7.7 2-2.8-.7-5.9-1.8-6.9-2.5-1.6-1.2-1.6-1.6 0-6.2 2.3-7 3-7.7 6.8-7.6 1.8.1 11.7 1.7 21.9 3.7 21.4 4 22.5 4.1 23.3 1.8 1.3-3.2 2.6-16.4 3.6-36.1C513 113.8 492.1 51 449.3 13 437.5 2.5 426.2-1.7 416.5.9zm67.8 141.4c2.5 3.3 1.8 4.2-4.8 5.8-6.5 1.7-8.5 3.4-8.5 7.5 0 2.8-.5 3.5-2.6 4-3.6.9-5.1-1-5.9-7.8-.7-6.5-1-6.1 9-10 8.3-3.2 10.1-3.2 12.8.5zm10.3 23.2c3.4 5.2.7 7.2-9.8 7.4-4.9.1-6.2.6-9.2 3.2-2.7 2.3-4.3 3-6.8 2.7-3.3-.3-3.3-.3-3.6-6.4-.2-4.2.1-6.4 1-7.2 1.3-1 6.4-1.5 21-2 5.1-.2 5.9.1 7.4 2.3zM474 184.6c2.6 3 5.7 3.9 15.5 4.4 9.6.5 10 .6 11.5 3.2 1.1 2.1 1.2 3.2.4 4.5-1 1.6-3.1 1.8-18.8 1.9-13.7.1-17.8-.2-18.7-1.2-1.4-1.8-.7-10.8 1.1-12.9 1.6-2 7.4-1.9 9 .1zm-1.2 19.6c.7.7 1.2 2.2 1.2 3.4 0 3.9 2.5 5 14.1 6.8 6.3 1 12.1 2.2 13.1 2.7 2.3 1.2 2.5 7.7.3 8.5-1.2.5-35-5.5-40.9-7.3-1.6-.4-1.8-1.2-1.3-5.5.9-7.5 2.8-9.8 8-9.8 2.4 0 4.8.5 5.5 1.2z"/><path d="M398.7 319.6c.3.8 4.1 4.2 8.5 7.5 4.4 3.4 8.2 6.8 8.5 7.6.3.8 0 2.6-.8 3.9-.9 1.8-1 3-.3 4.2 2 3.2 38.8 32.2 40.9 32.2 1.7 0 7.5-9.1 7.5-11.8 0-1.6-4.8-5.6-19.6-16.4-10.7-7.9-20.8-14.6-22.3-14.9-1.5-.3-6.9-3.6-12-7.2-9.6-6.9-11.5-7.8-10.4-5.1zm-13.5 13.9c.2.9 14 13.2 30.7 27.5 21.3 18.2 30.8 25.7 31.5 25 .7-.7.7-1.6.1-2.5-1.8-2.7-59.9-51.5-61.3-51.5-.7 0-1.2.7-1 1.5zm-13.8 12.9c-.5 1.2 1.7 3.9 7.8 9.9 4.7 4.5 9 9.6 9.7 11.4.8 1.8 8.5 10.1 19 20.1 19.2 18.3 22 20.6 24.4 19.6 2.5-.9 6.9-8 6.5-10.5-.3-2.1-27.1-28.2-36.6-35.6-3.2-2.6-3.4-2.6-6.2-1-1.5.9-3.3 1.7-4 1.7-.6 0-3.9-2.6-7.3-5.7-13.4-12.4-12.6-11.8-13.3-9.9zM355 359.7c0 .9 4.1 5.8 9 10.9 5 5 9 9.8 9 10.6 0 .9-.7 2.1-1.5 2.8-.8.7-1.5 2-1.5 2.8 0 1.8 40.8 43.2 42.6 43.2 2 0 8.4-7.9 8.4-10.4 0-3.1-39.1-41.6-42.2-41.6-1.3 0-6-3.9-12.3-10-5.5-5.5-10.4-10-10.8-10-.4 0-.7.8-.7 1.7zm-50 39.4c0 .6 4.5 6 10 12s10 11.4 10.1 12.1c0 .7.1 2.8.2 4.6.2 2.7 3.4 6.7 21.6 26.2 12.2 13.2 22.1 23 23.1 23 2.1 0 9-7.3 9-9.5 0-.9-9.7-11.9-21.6-24.5-20.9-22.2-21.8-23-25.2-22.8-3.3.2-4.2-.5-14.1-11-9.8-10.4-13.1-12.9-13.1-10.1zm-17 12.7c0 .6 5 6.5 11 13.1 6.1 6.7 11 12.4 11 12.6 0 .3-.9 2.4-2 4.5l-2 4 11.8 13.2c6.6 7.3 16.2 18 21.5 23.8 5.3 5.8 9.7 11.2 9.7 12.1 0 2-3.1 4.9-5.3 4.9-.9 0-16.7-16.9-35.2-37.4-18.4-20.6-34-37.8-34.6-38.2-.6-.3-1.5-.2-2 .3-1.2 1.2 1.2 4.2 19.7 24.4 30.1 32.7 48.4 53.4 48.4 55 0 2.2-3.5 5.1-5.7 4.7-1-.2-10.9-10.4-22-22.8s-21.2-23.3-22.4-24.2c-1.9-1.6-2.4-1.6-4.9-.3-1.6.8-3.4 1.5-3.9 1.5-.6 0-6.3-5.8-12.7-13-10.8-11.9-13.4-14-13.4-10.6 0 .7 4.9 6.7 10.9 13.4 6.4 7.3 11.1 13.4 11.4 15 .7 3.6 44.2 52 47.3 52.8 1.2.3 3.5-.1 5.2-1 2.9-1.5 3-1.4 3.6.7.3 1.2 3.5 21.3 7.1 44.7 3.5 23.4 7.4 48.9 8.7 56.8 1.5 9.6 1.9 14.9 1.2 15.9-.5.8-4.6 3-9.1 4.8-26.3 10.6-48.4 28.2-62.8 50-13.7 20.7-19.4 39.1-19.5 62.7 0 10.1.5 13.5 3.4 25 7.2 27.9 15.7 45.6 26.9 55.8 5.9 5.4 17.7 10.2 17.7 7.1 0-.5-2-3.3-4.4-6.3-13.5-16.6-19.1-36.1-16.6-57.3 3-24.9 14.6-43.8 36-58.2 13.1-8.8 37-19.7 39-17.7.6.6 4.6 27.8 9 60.5 4.3 32.8 9.3 69 11 80.5 1.7 11.5 3.9 27.9 5 36.4 1 8.5 3.1 22.5 4.5 31 1.8 10.7 2.6 19.3 2.6 28 0 9.5.8 17.5 3.5 33.5 5 29.6 5.1 30.2 10.1 28.9 2.8-.8 3.9 1.1 6.2 10.3 2.6 10.2 2.7 15.1.4 16-3 1-6.3 4.5-6.3 6.7 0 1.1 1.6 10.3 3.5 20.5 11.2 59.6 12.4 99 3.9 128-2.2 7.8-5.8 14.5-12.2 23-18 24.1-44.6 43.7-66.2 48.7-11.1 2.5-34.1 3-46 1-19.2-3.4-33.1-9.1-40.5-16.6-5.9-6.1-5.1-6.9 18.1-18.9 11-5.7 22.9-12.3 26.6-14.8 13.3-8.7 20.7-20.2 23.6-36.2 1.4-7.9 1.4-10.8.4-19.9-1.6-14.3-6.4-31.9-11.5-41.7-7.7-15.1-22.4-26.6-39.7-31.2-8.9-2.4-27.2-2.4-36 0-21.8 5.9-40.5 20.9-50.1 40.2-6 12.1-8 21.5-8 37 0 19.4 3.5 35.8 12.2 58.1 16.1 41.2 54.6 65 108.9 67.1 42.9 1.7 75.4-7.5 103.6-29.3 27-20.9 44.7-49.6 51.6-83.6 2.1-10.4 2.3-13.7 2.2-41.3-.2-30.8-1.3-48-5.6-82.2-1.6-13.5-1.9-19-1.2-21 .9-2.3.4-4.6-2.8-13.6-2.1-6-3.8-11.5-3.8-12.4 0-.8 1.3-2.7 3-4.3 3.5-3.3 3.9-1.6-6.4-27.7-7.2-18.4-7.5-19.3-6.2-22.5 1.2-3 .9-6-2.9-29.8-2.4-14.6-7.5-47-11.4-72-3.9-25-10-64.4-13.6-87.5-3.7-23.1-6.7-44.5-6.8-47.5l-.2-5.5 9.4.2c25.7.7 51.2 13 73.1 35.2 27.7 28.1 38.3 63.2 33.9 112.4-2.6 30-9.2 47.6-24 64.8-2.7 3.1-4.9 6.3-4.9 7.1 0 2.3 23.8 27.1 28.4 29.5 2.2 1.2 6.3 4.4 9.1 7.2 4.3 4.5 8.5 6.6 8.5 4.3 0-.4-2.5-3.2-5.6-6.2-7.4-7.3-7.8-8.2-5.9-12.6.8-2.1 1.3-4.5 1-5.4-.3-.9-5.5-6.2-11.5-11.6-6.1-5.4-11-10.7-11-11.6 0-2.5 3.1-3.9 5.6-2.5 1.2.7 10.8 8.4 21.3 17.2 10.6 8.8 19.7 16 20.3 16 3.5 0-.2-3.9-18.7-19.5-11.3-9.6-20.5-17.7-20.5-18.1 0-1.3 3.1-3.9 4.5-3.9.7 0 6.5 3.8 12.8 8.5 6.3 4.7 12.4 8.5 13.4 8.5 1.1 0 2.8-.9 3.8-2 2.4-2.6 2.7-2.6 9.5 1.6 3.2 2 6.4 3.3 7 2.9 1.5-.9-.2-2.9-4.9-5.6-2-1.2-5-4-6.6-6.3-1.8-2.4-6.9-6.6-12.4-10.3-5.2-3.4-9.8-6.8-10.3-7.6-1.1-2 2.7-6.7 5.4-6.7 1.1 0 6.5 2.5 12.1 5.5 6.5 3.6 11.2 5.5 13.4 5.5 1.8 0 5.5 1.1 8.2 2.5 4.4 2.2 6.1 2.3 6.1.5 0-.3-2.2-1.9-5-3.5-2.7-1.6-5.1-3.4-5.1-4-.1-.5-.2-2.8-.3-5l-.1-4-9.7-4.7c-5.8-2.8-9.8-5.3-9.8-6.2 0-1.6 2.6-4.6 4-4.6.5 0 7.9 2.7 16.5 6s16.8 6 18.3 6c2.6 0 2.6 0 .7-1.8-1.1-1-8.3-4.3-16-7.2-7.7-2.9-14.6-5.7-15.2-6.3-2-1.5-1.5-3.5 1-5.1 2.1-1.4 3.1-1.3 11.1 1.1l8.9 2.7 1.8-2.5c3.7-4.8 4.1-5 7.7-4.7 1.9.2 3.7-.2 3.9-.8.4-1.3-14.2-8.3-19.2-9.1-4.2-.7-5.2-2.4-3.7-5.8 1-2.2 1.6-2.4 7.9-2.2 6.1.2 7.4-.1 12.8-3.2 5.8-3.4 5.8-3.5 3.5-4.5-1.4-.6-3.7-2.3-5.2-3.9-2-1.9-3.7-2.7-6.3-2.7-2.3 0-3.8-.5-4.2-1.6-.8-2.2 1.3-6.4 3.3-6.4 2.1 0 13.4-5.1 13.4-6 0-.4-.7-1.4-1.7-2.1-.9-.8-2.2-2.9-3-4.6-.7-1.8-1.9-3.3-2.7-3.3-3.2 0-3.6-2.5-2-11.1 3.8-19.8-1-42.4-15.1-71.4-13.4-27.4-32.6-48.4-58-63.3-27-15.9-48.1-21.2-87.8-21.9-24.7-.5-24.8-.5-25.7-2.8-.5-1.2-2.3-11.7-4-23.1-1.7-11.5-6-39.8-9.5-62.9s-6.9-45.8-7.6-50.3c-1.1-8.3-1.2-8.5-7.3-15.2-22.1-24.4-32.6-35.4-40.3-42-4.9-4.1-12-11.1-15.9-15.5-6.4-7.3-10.4-10.2-10.4-7.7zm125.8 536.4c.5.7 3.6 9.4 6.7 19.3 3.6 11.2 7.6 21.5 10.6 27.2 4.7 8.7 8.9 19.8 8.9 23.4 0 1.1-2.5 2.7-7.7 4.8-4.3 1.7-8.6 3.1-9.5 3.1-3 0-7.8-18.3-7-27 .3-4.4-.7-9.9-4.7-26.3-5.1-20.7-5.7-23.8-4.4-25 1.1-1.2 6-.8 7.1.5z"/><path d="M237.5 452c-.7 1.1 1.9 4.2 14.8 18.3 4.2 4.6 7.7 9 7.7 9.7 0 .6-.7 2.4-1.6 4-1.1 1.8-1.4 3.3-.8 4.3.5.8 11.4 13 24.2 27.1 17.4 19.1 23.7 25.3 25 24.9 3-1 8.2-6.6 8.2-8.7 0-3.1-43.7-51.3-48.9-54-2.3-1.2-6.9-5.3-10.2-9.1-9.3-10.6-16-17.5-16.9-17.5-.5 0-1.2.5-1.5 1zm-17.1 14.3c-.4 1.1 11.7 14.5 37.2 41.6 20.7 22.1 38.1 40.1 38.6 40.1.4 0 .8-.6.8-1.3 0-1.3-73.3-80.9-75-81.5-.6-.2-1.3.3-1.6 1.1zM202.5 481c-.4.6 5 6.8 11.8 13.8 6.9 7.1 13.3 14.4 14.3 16.4 1.1 2 13.2 15.1 27.1 29.2 22.2 22.8 25.4 25.6 27.1 24.7 2.6-1.4 7.2-6.9 7.2-8.7 0-1.4-46.9-51.2-49.7-52.8-1-.6-2.5-.3-4.3.8-1.6.9-3.5 1.6-4.3 1.6-.9 0-7.1-5.9-13.8-13-11.8-12.5-14-14.2-15.4-12zM186 497.4c0 .8 5.9 7 13 13.8l13.1 12.3-.7 3.8-.6 3.8 11.9 11.3c6.5 6.2 18.5 17.6 26.8 25.4 8.2 7.8 15.4 14.2 16 14.2 3.3 0 9.1-7.4 7.9-10.3-.2-.7-12-12.6-26.1-26.2-25.3-24.7-25.6-24.9-29.5-24.6-3.9.2-4.4-.2-16.7-12.4-12.2-12-15.1-14.2-15.1-11.1zm-17 16c0 .8 4.6 5.6 10.2 10.8 5.7 5.1 12 11 14.1 13l3.9 3.8-2.2 3.5c-1.9 3.1-2 3.8-.9 5.5.8 1 13.7 12.5 28.7 25.4 23 19.9 27.6 23.5 29.1 22.6 2.4-1.2 7.1-6.8 7.1-8.4 0-1.2-11.2-11.8-29.5-28.1-5.5-4.9-12.7-11.4-16-14.6-3.3-3.2-8.4-7.1-11.3-8.7-2.9-1.6-11.1-8.1-18.1-14.5-7.1-6.5-13.4-11.7-14-11.7-.6 0-1.1.6-1.1 1.4zm-16 18.2c.7 1.1 18.6 16.3 39.8 33.9 21.2 17.6 41 34.2 44 36.8 5.1 4.6 7.1 5.4 7.9 3.1.5-1.5-87.7-74.7-90.5-75.2-2.1-.4-2.3-.3-1.2 1.4zm-16 17.7c0 1.3 6.9 7 18 14.8 6.1 4.3 13.5 11.5 15.6 15.1 1.6 2.7 58.4 43.9 60.1 43.6.9-.2 3-2 4.6-4.1l3.1-3.7-2-2.5c-3.4-4.4-56.8-45.5-59-45.5-1.2 0-2.7.7-3.4 1.5-.7.8-2.1 1.5-3.2 1.5s-8.5-5-16.5-11c-14-10.6-17.3-12.4-17.3-9.7zM121.5 568c-.4.6-.5 1.3-.4 1.4.2.2 7.2 4.9 15.6 10.4 8.3 5.6 15.5 10.7 16 11.4.4.7.8 3.5.8 6.2v4.9l31.4 19.9c17.3 10.9 32.1 19.8 32.8 19.8 1.5 0 6.3-6.8 6.3-9.1 0-1.5-10-8.6-47.9-34.2-8.9-6-15.4-9.7-17-9.7-1.6 0-8.7-4.1-18.6-10.6-17.9-11.9-18-12-19-10.4zm-14.1 20.5c-.4.9 0 2.2.7 2.9 3.5 3.3 103.4 59.6 104.7 59.1 1.3-.5 1.3-.8-.4-2.4-1-1-23.5-14.3-49.9-29.6s-49.5-28.6-51.3-29.7c-2.9-1.8-3.3-1.8-3.8-.3zm-11.8 22.3c-1.5 1.5.5 2.8 15 9.9 8.6 4.1 18 9.5 21 11.9 5.8 4.8 68.4 35.4 72.3 35.4 2.2 0 5.1-4.5 5.1-7.9 0-1.1-1-2.7-2.2-3.5-7.1-4.6-64.6-34.6-66.4-34.6-1.1 0-3 1.1-4.2 2.5-1.2 1.4-2.9 2.5-3.7 2.5-.8 0-9.3-3.8-18.9-8.4-9.6-4.6-17.7-8.1-18-7.8zm-12 24.1c-.8 1.3 1.2 2.5 8.4 5.1 9.7 3.5 25.2 9.9 27.6 11.5 1.2.7 2.4 2.7 2.7 4.2.7 3.5.7 3.5 23.7 12 40.6 15 50 18.2 51.3 17.7 2.5-.9 4.2-5.2 3.1-8.2-.8-2.4-4.6-4.3-34.9-17.4-18.7-8-35-14.7-36.1-14.7-1.2-.1-2.7.6-3.4 1.4-.7.8-1.9 1.5-2.6 1.5-.7 0-9.5-3.2-19.5-7-19.4-7.4-19.5-7.5-20.3-6.1zm-9.4 25.7c.2 1.3 5 2.9 18.8 6.6 10.1 2.7 19 5.4 19.7 5.9.6.6 1.3 3.2 1.5 5.7l.3 4.7 5.5 1.8c9.4 3 67.4 17.1 69.9 17 2.5-.1 3.8-1.4 4.7-5.1 1.3-4.8.8-5-56.6-22.8-13.8-4.3-18.4-5.3-21.5-4.8-3.2.4-7.8-.6-22-5-9.8-3.1-18.5-5.6-19.3-5.6-.7 0-1.2.7-1 1.6zm-6.7 25.3c-.3.5-.1 1.2.5 1.6 1.3.8 114.9 23.5 117.8 23.5 1.4 0 2.2-.5 2-1.2-.3-.8-22.1-5.6-58.9-13-32.1-6.4-58.9-11.7-59.6-11.7-.6-.1-1.4.3-1.8.8zm39.1 33.8c-.4.5-1.4 2.3-2.2 4.2l-1.4 3.4-6.8-.6c-3.7-.3-12.6-1.1-19.9-1.8-14.1-1.2-17.7-.9-15.2 1.6 1 .9 7.1 1.9 19.7 3 12.1 1 19.8 2.2 23 3.4 2.6 1 6.5 2.1 8.7 2.5 8.4 1.3 64.8 5.7 69.2 5.4 4.3-.3 4.7-.5 5.5-3.6 1-3.9-.3-7-3.5-7.7-2.5-.6-73.4-10.5-75.2-10.5-.6 0-1.5.3-1.9.7zm-1.6 28.8c-1.9 1.1-6.9 1.4-21.8 1.5-18.5 0-24.1.8-22.7 3.1.4.5 8.7.9 19.6.9 10.5 0 19.8.4 20.8 1 1 .5 2.1 2.3 2.4 4 .4 1.9 1.5 3.3 2.9 3.8 3.7 1.3 74.9-.2 77.6-1.7 1.7-.9 2.2-2.1 2.2-5 0-6.5.2-6.5-33.9-7.3-16.8-.3-33.7-.9-37.6-1.2-5.1-.4-7.7-.2-9.5.9zm60 21.6c-5.8.4-30.7 1.9-55.5 3.4-24.7 1.4-45.6 2.8-46.3 3-.6.2-1.2.9-1.2 1.5s3.6 1 9.3 1c19.5 0 92.3-4.7 108.7-7 3.6-.5 6.9-1 7.3-1 .5 0 .5-.5.2-1-.7-1.1-6.7-1.1-22.5.1zm13 8.6c-23.9 2.7-64.2 7.5-66.5 7.9-4.1.9-5.5 2.2-5.5 5.4 0 1.5-.7 3.3-1.5 4-.9.7-8.6 2.4-17.3 3.6-18.6 2.8-20.2 3.1-20.2 4.4 0 1.5 5.8 1.2 20.3-1.1 9.1-1.4 15.4-1.9 20.2-1.5 5.8.5 13.1-.4 42.4-5.3 19.4-3.3 35.9-6.6 36.7-7.2 3.3-2.7.6-11.1-3.4-10.7-.9 0-3.3.3-5.2.5zm-11 22.2c-14.5 3.2-38.2 8.1-51.3 10.7-1.9.4-3.6 1.8-4.8 3.9-2.5 4.1-4.4 4.9-20.1 8-7 1.3-14.5 3.2-16.5 4.2l-3.8 1.7 3.1.3c1.7.2 10.6-1.2 19.8-3.2l16.7-3.6 2.6 2.1c1.4 1.1 3.6 2 4.9 2 4.5 0 71.9-16.1 73.4-17.5.7-.8 1.4-3.1 1.4-5 0-7.8-3.6-8.3-25.4-3.6zM154.3 828c-22.9 5.9-35.1 9.5-36.9 10.9-2.8 2.2-8.9 4.2-26.9 8.7-11.3 2.8-14.2 4.1-12.8 5.5.5.5 8.7-1.2 18.2-3.7 9.6-2.5 18.3-4.4 19.4-4.2 1.1.2 2.8 1.6 3.7 3.3.9 1.6 2.5 3.1 3.6 3.3 1.1.1 10.3-2.2 20.5-5.2s26-7.6 35-10.1c9.6-2.7 17.2-5.5 18.4-6.6 1.8-1.8 1.8-2.2.5-6.1-1.4-3.9-1.8-4.3-5-4.5-1.9-.1-18.9 3.8-37.7 8.7zm21.2 17.6c-10.4 3.6-32.7 10.8-49.5 16-37.8 11.8-40.4 12.8-40.8 14.8-.2.9.2 1.6 1 1.6.7 0 18.4-5.9 39.3-13.1 20.9-7.3 45.5-15.6 54.8-18.6 9.2-3 16.7-5.9 16.7-6.4 0-1.5-1.6-1-21.5 5.7zm-8 14.2c-18.1 7.1-34 13.4-35.2 14-1.8 1-2.3 2.2-2.3 5 0 2-.4 4.3-.8 5-.5.6-8.4 4.5-17.7 8.5-9.3 3.9-17 7.8-17.3 8.4-1 3.2 4 1.9 20-5 12.6-5.4 18.1-7.3 20.3-7 2.3.3 10.5-3 36-14.7 18.2-8.4 33.8-15.9 34.8-16.8 1.3-1.1 1.6-2.4 1.2-4.2-.8-2.9-3.3-6-4.9-6-.6.1-15.9 5.8-34.1 12.8zm8.6 22.7c-22.3 12.5-32.4 18.7-35 21.5-2.2 2.4-8.7 6.7-16.6 11-13.2 7.2-17.9 10.6-16.9 12.1 1.1 1.8 3.5.7 18.5-8.1 8.4-5 16.1-9 17-9 1 0 3.1 1.2 4.8 2.6l3.1 2.6 4.3-2.5c9.9-6 57.1-38.4 58.1-40 1.4-2.2-1.1-7.1-3.9-7.4-1.1-.2-16.1 7.6-33.4 17.2zm36.4-1.6c-1.1 1.1-20.9 16.6-44 34.6-23.1 17.9-42.1 33.3-42.3 34.1-.2.8.4 1.7 1.2 2 2 .8 6-2.2 33.2-24.7 43.7-36.1 55.4-46.1 54.8-47-.7-1.2-.6-1.2-2.9 1zm-14.1 24c-12.1 11.5-23.9 22.9-26.4 25.5l-4.4 4.6 1.7 4.6 1.7 4.6-7.9 8.7c-4.4 4.7-9.5 10.2-11.5 12-3.7 3.6-4.6 6.1-2.2 6.1.7 0 6.3-5.1 12.3-11.4 6-6.2 12.7-12.3 15-13.4 5.7-2.9 51.3-52.4 51.3-55.7 0-2.4-4.1-6.5-6.5-6.5-.7 0-11.1 9.4-23.1 20.9zm31.9-4.7c-1.6 1.8-11.9 14.1-22.7 27.2l-19.8 24 .7 4.1c.6 4.6 1.7 2.9-13.9 22.9-3.8 4.9-5.6 8.1-5.2 9.2.3.8 1.2 1.4 1.9 1.2.6-.3 5.7-6.3 11.3-13.4 9.6-12.3 10.2-12.9 14.2-13.4 4.1-.5 4.2-.6 20.3-23 19.9-27.6 24.9-34.8 24.9-36.1 0-1.7-4.8-5.9-6.8-5.9-1 0-3.2 1.5-4.9 3.2zm16 9c-.6.7-9 14-18.7 29.4-10.6 16.9-17.6 29.1-17.6 30.6 0 2.3-11.4 22.5-16.1 28.6-1.8 2.4-1.6 5.2.5 5.2.6 0 4.9-6.4 9.4-14.1l8.4-14.2 5.3.7c3.6.4 5.6.2 6.3-.7 2.3-2.9 32.2-59.5 32.2-61 0-1.9-4.6-5.7-7-5.7-1 0-2.2.6-2.7 1.2zm12.8 13c-1 2.4-11.1 24.1-22.5 48.2-19.6 41.8-21.6 47-17.4 45.3 1.4-.5 43.8-93.7 43.8-96.2 0-2.9-2.1-1.4-3.9 2.7zm10.5 1c-1.9 3-23.6 59.6-23.6 61.6 0 .9 1.4 2.8 3.2 4.2l3.2 2.7-5.2 14.9c-5.6 16.1-6.1 18.7-3.5 18.2 1.7-.3 1.9-.8 8.5-19.8 2.2-6.3 4.6-11.9 5.4-12.3.8-.4 2.1-2.2 3-3.9 2.5-4.9 20.4-58.6 20.4-61.3 0-1.9-1-3-4-4.5-5-2.5-5.6-2.5-7.4.2zm199.4 1.5c-2.3.9-6 4.5-6 6 0 .7 5.3 8.5 11.8 17.3 11.4 15.5 11.8 15.9 15.4 16 3.3 0 4.2.7 9.5 7.2 5.6 6.9 9.3 9.5 9.3 6.6 0-.7-2.2-4-4.8-7.3-6.5-8.1-7.5-10-6.2-12.4.5-1.1 1-2.4 1-3 0-2-25.2-31.1-26.8-31-1 0-2.4.3-3.2.6zm-178.4 8.4c-.8 1.9-5.1 15.9-9.6 31.3-6.3 21.5-8 28.6-7.5 31.3.4 2.4-.4 7.2-2.8 16.1-4.1 15-5.1 20.2-3.9 20.2 2 0 3.4-3.4 7.5-17.7l4.3-14.8 4.3-.6c2.3-.3 4.7-1.2 5.2-2 .4-.8 2-6.4 3.5-12.4 1.4-6.1 4.6-19.1 7-29 2.4-9.9 4.4-18.7 4.4-19.7 0-2.1-3.5-4.5-7.8-5.4-2.9-.6-3.3-.4-4.6 2.7zm156.4 2.2c-1.4.7-2.6 2.1-2.8 3.2-.1 1.1 4.4 10.3 10 20.5l10.3 18.5h10.6l5.7 8.5c3.1 4.6 6.2 8.3 6.7 8.3 2.3-.4 1.3-3.4-3.4-10.4-2.8-4.1-5.1-8.4-5.1-9.5 0-1.2-1.3-4.6-2.8-7.6-3.8-7.2-16.9-27.7-19.5-30.6-2.3-2.5-5.9-2.8-9.7-.9zm-136.7 7.2c-3.3 11.2-20.2 93-19.4 93.8 2.4 2.4 3.9-.5 5.9-11 1.1-5.9 5-26.2 8.7-45.1 3.6-18.9 6.5-36 6.3-38l-.3-3.7-1.2 4zm10.8-1.7c-1 1.8-10.1 55.7-10.1 59.7 0 1.9.8 2.8 3.5 3.9 1.9.8 3.8 2.1 4.1 2.9.3.8-.2 6.8-1 13.3-1.9 13.9-2 19-.5 20 2.1 1.2 2.7-1.2 4.4-16.1 1-9.2 2.4-16.7 3.5-19.3 1.8-4 6-34.6 7.7-55.8.5-6.6.4-7.2-1.8-8.8-3.1-2.2-8.6-2.1-9.8.2zm112.5 0c-.5.8 3.4 9.4 21.2 46.7 7.7 16 10.5 21 11.9 21 1.1 0 1.7-.6 1.5-1.7-.2-1.5-27.3-57.7-31-64.6-1.3-2.3-2.7-2.8-3.6-1.4zm-91.5 3.6c-1.1 1.3-5.1 42.9-5.1 54 0 4.8.5 6.3 2.5 8.8 2.9 3.4 3 4.9 1.4 20.2-1.1 10.1-1 11 .6 12.2 1 .7 2.2 1.1 2.6.8.5-.3.9-5.3 1-11.2 0-15 .9-19.5 4.4-22.5l2.9-2.5 1-28.7.9-28.8-2.3-1.9c-2.6-2.1-8.3-2.4-9.9-.4zm20.9 2.2c-2 2.3-1.5 54.3.5 59.9.8 2.2 1.8 10 2.2 17.4.6 9.3 1.2 13.6 2.1 13.9.9.3 1.2-3 1.2-14 0-14.7.5-16.8 4-16.8.9 0 2.5-.9 3.5-2 1.8-2 1.8-2.9.2-28.8-1.7-26.3-1.8-26.7-4.3-29-2.9-2.6-7.6-2.9-9.4-.6zm19.4 3.9c-.3.8 1.5 19.5 4 41.6 3.3 29.8 4.9 40.6 6 41.8 1.4 1.3 1.6 1.2 2.2-.4.7-1.7-7.9-78.2-9.2-82.8-.6-2.1-2.3-2.2-3-.2z"/></symbol><symbol viewBox="0 0 1174 1280" id="piano" xmlns="http://www.w3.org/2000/svg"><path d="M1028 2.3c-2.5 1.4-16.9 9.8-32 18.7-15.1 8.9-59.2 34.7-98 57.3-38.8 22.5-104.5 60.9-146 85.2-41.5 24.3-107.7 63-147 86s-84.3 49.3-100 58.5c-15.7 9.2-51.4 30.1-79.5 46.5-28 16.4-67.2 39.4-87 51-19.8 11.7-40.8 24-46.8 27.3-17 9.7-66.3 39.3-69.3 41.7-4.3 3.4-2.4 4.5 7.9 4.5h9.1l-3.1 3.2c-4.7 5.1-6.3 8-6.3 11.5 0 3.1.2 3.3 3.3 3.3 1.7 0 5.7-.7 8.7-1.5 3-.8 6.5-1.5 7.8-1.5 2.9 0 2.9 2.5 0 4.4-2 1.3-40.5 11.3-152 39.4l-30.7 7.7-.7 5.3c-1.2 9.8.2 37.9 2.6 51.2 4 22.5 1.6 54.6-5.6 72.3-5.3 13.5-17 25.1-29.9 29.8-10.5 3.8-20.6 9-24.8 12.7-6.6 6-8 10.5-8.5 26.2-.7 22.7 2.2 42 6.2 42 2.3 0 3.3 2.7 3.9 10.6.3 3.9 1.3 8.8 2.1 10.8 2.6 6.4 3.2 6.5 70.6 19.6 53.3 10.4 85.2 16.8 85.7 17.3.9 1 5.6 42.2 11.8 103.3 6.7 65.8 7.7 83.3 6.1 101.5-.8 8.5 1.6 37.5 3.2 39 1 .9 22.6 5.6 29.3 6.4 5.1.6 6.2.4 12.5-2.8 10.5-5.4 16.7-10.6 17.6-14.7.5-1.9.5-22.2.2-45-.5-39.8-.4-43.9 3-99.5 4.1-67 4.4-70.5 6-70.5 4.2 0 95.9 16.5 147.6 26.5 26.7 5.2 58.2 11.2 70 13.5 33.4 6.4 42.4 8.2 43.2 8.9.4.4 1.4 21.6 2.3 47.1.8 25.6 2.2 67.6 3 93.5.8 25.9 1.8 54.3 2.2 63.2.7 17.7.4 18.6-4.6 19.6-3.6.8-18.5 12-22.5 17l-3.1 3.9.2 16.8.2 16.7-5.3.6c-8.5.9-16.6 5.7-15.2 9.2 2 5.4 21.6 6 35.9 1 5.4-1.8 8.7-2.4 11-2 7 1.5 16.7 4.6 16.7 5.5 0 .5-2.2 2.1-4.9 3.5-6 3-7.2 5.7-4 9.1 2.7 2.9 7.6 4.4 14.2 4.4 6 0 8-1.1 13.8-7.2 2.6-2.8 5.4-4.8 6.6-4.8 2.7 0 15.6 2.7 20.1 4.1 3.1 1 3.3 1.4 2.7 4.3-1.8 9-1.8 9.7.5 12.1 1.3 1.4 3.9 3 5.8 3.6 4.1 1.3 15.7.6 17.8-1.2 1.8-1.5 1.7-4.7-.1-7.9-.8-1.4-1.4-2.8-1.5-3.3 0-1.2 4.2-.8 15 1.3 5.6 1.1 11.4 1.7 12.8 1.4 6.3-1.6 17.5-12.1 20.6-19.5 1.9-4.7 3.9-21.6 3.4-28.9-.6-8-2.7-10.1-12.8-13-8.3-2.4-14-5.2-14-7.1 0-1.1 4.9-14 27.7-72.9 8-20.6 21.4-55.3 29.8-77 8.4-21.7 16.7-43 18.5-47.4l3.3-7.9 7.8.6c7.4.6 49.6 8 118.4 20.7 17.6 3.3 40.8 7.5 51.5 9.4 59.8 10.7 71.4 12.8 72.5 13.3 2 .7 2.4 15.3 3.6 108.8 1.2 96 .9 110.3-2.5 118-2.4 5.6-2.7 15.3-1.2 38.6l.8 12.6 21.8 5.2c17.4 4.2 22.3 5 23.9 4.1 2.8-1.4 11.6-12.2 14.1-17 4.1-8.1 8.8-38.3 7.5-48.7-2.1-17.1-1.7-21.1 15.1-143.3 13.7-99.9 15.2-109.5 19.1-118 1.3-3 4.3-10.5 6.5-16.5 4.9-13.5 12.5-28.1 21.6-41.7 3.8-5.7 8.4-12.9 10.2-16.1 2-3.5 9.1-11.9 18-21.1 8.1-8.3 15.3-16.3 16-17.6.7-1.3 1.6-5.7 2-9.7.6-6.3 1.3-8.2 4.9-13.5 2.3-3.4 5.1-9.4 6.3-13.3 1.2-3.8 2.9-8.8 3.9-11 2.9-6.9 3.5-13.2 9.4-96 7.9-110.8 8.1-114.3 6.4-117.3-2.8-5.1-22.9-13-57.9-22.7-9.1-2.6-17.2-4.8-18.2-5.1-1.2-.3-2.1-2.9-3.3-9.7-9.6-52.6-15.3-81-19.4-96.2-7.2-26.4-9.6-37.4-47.6-222.5-11.3-55.1-20.5-105.8-20.5-113 0-3.9.5-4.4 17.5-17.2 14.7-11 38.7-26.9 57.5-37.9 9.1-5.4 22.5-13.2 29.7-17.5 24.6-14.4 31-22.7 19.5-25.3-4.4-1-22.6-3.5-58.7-8.1-8.8-1.1-21.2-2.3-27.5-2.6-10.9-.6-11.7-.5-16 1.9zm-34.1 117.4c.5 1 2.5 11.2 4.5 22.8 13.4 76.7 15.3 87.6 32.1 179 11.6 63.5 16 90.3 19 118 2.4 21.6 4.3 34.3 8.6 56 4.3 22.2 6.6 35.2 7.1 40.5.3 3.3.1 3.5-2.6 3.2-4.2-.5-17.3-4.7-31.9-10.4l-12.7-5 .5-12.1c.2-6.7.7-24.4 1-39.4l.6-27.1-5.3-3c-23.4-13.4-77.8-21.5-205.3-30.7-67.1-4.8-82.1-5.5-113.8-5.5-45.8 0-60.7 1.3-96.4 8.1-13.3 2.6-17.6 3-18.5 2.1-1.7-1.7 4.2-4.1 29.4-11.6 11.8-3.5 23.2-7.2 25.4-8.1 2.1-.9 8.6-3.4 14.4-5.5 28.2-10.2 42.5-16.5 87.3-38.2 40.3-19.5 62.3-29.8 63.7-29.8.5 0 3-1.5 5.4-3.4 4.4-3.3 19.7-11.8 48.1-26.6 36.8-19.2 90.3-50.2 108.2-62.7 10.7-7.4 20.8-16.4 22.9-20.4 1.7-3.4 1.8-6 .2-9.4-1.4-3.1-4.4-4.8-18.9-10.4-13-5.1-19.6-9.1-20.5-12.6-1.9-7.6 1.8-15.7 13.1-28.5 8.2-9.3 30.9-31 32.5-31 .5 0 1.3.8 1.9 1.7zM566.4 417.5c.8 2.3-.4 4.5-2.8 5-1.1.3-25.9 6.3-55 13.5-52.8 12.9-63.8 15.1-65 13.2-1.6-2.7 3.9-4.6 38.4-13.3 35.5-9 73.9-18.7 76.5-19.2 4.3-1 7.3-.7 7.9.8zm-140.4 35c0 3-6.8 5.5-33.4 12-73.5 18-88.8 21.7-100.3 24-14.2 2.9-19.3 3.2-19.3 1.1 0-1.6-.2-1.5 83.5-22.5 34.7-8.7 64.5-15.9 66.3-16 2.2-.1 3.2.3 3.2 1.4zm142.2 480c-.7 43.2-7.5 186.1-8.8 187.4-1.5 1.6.5-198.4 2.1-200.9.4-.6 2.1-1 3.8-.8l3.2.3-.3 14zm27-7.9c.8.5.9 15.9.5 56.3-.9 72.2-2.7 151.4-3.6 157.1l-.7 4.5-4.9-.3c-6.8-.3-18.8-3-21-4.6-1.9-1.4-1.9-4.7 1.5-78.6.6-11.3 1.9-42.8 3-70 1.8-46.3 2.3-54.1 3.6-64.6l.5-4.1 10 1.8c5.5 1 10.5 2.2 11.1 2.5zm7 207c-.5 6.8-1.1 12.7-1.5 13-.3.4-1.3.4-2.2.1-1.3-.6-1.5-4.2-1.5-27.4 0-14.7.4-43.2 1-63.3.5-20.1 1.4-53.4 2-74 .6-20.6 1.3-41.1 1.8-45.5 1-11.1 1.4 181.9.4 197.1zm58.1-195.7c8.4 1.6 21.9 4.2 30.2 5.6 16 2.9 18.5 3.7 18.5 6.1 0 .8-5.4 15.1-11.9 31.7-6.6 16.6-16.7 42.6-22.4 57.7-5.8 15.1-13.6 35.4-17.5 45-3.8 9.6-10.4 26.5-14.7 37.5-4.2 11-7.9 20.2-8.2 20.5-1 .9.6-42.9 3.2-88.5 1.3-24.2 3.1-56.2 3.9-71 2.4-42.3 2.8-47.5 3.3-47.5.3 0 7.3 1.3 15.6 2.9z"/></symbol><symbol viewBox="0 0 100 100" id="play" xmlns="http://www.w3.org/2000/svg"><path d="M31.356 25.677l38.625 22.3c1.557.899 1.557 3.147 0 4.046l-38.625 22.3c-1.557.899-3.504-.225-3.504-2.023V27.7c0-1.798 1.946-2.922 3.504-2.023z"/><path d="M69.981 47.977l-38.625-22.3a2.343 2.343 0 00-.716-.259l37.341 21.559c1.557.899 1.557 3.147 0 4.046l-38.625 22.3a2.296 2.296 0 01-1.078.301c.656.938 1.961 1.343 3.078.699l38.625-22.3c1.557-.899 1.557-3.147 0-4.046z"/><path d="M31.356 25.677l38.625 22.3c1.557.899 1.557 3.147 0 4.046l-38.625 22.3c-1.557.899-3.504-.225-3.504-2.023V27.7c0-1.798 1.946-2.922 3.504-2.023z"/></symbol><symbol viewBox="0 0 64 64" filter="drop-shadow(rgba(0,0,0,.2) 0 0 2px)" id="spotify"><path d="M50.929 28.369c-10.315-6.126-27.33-6.69-37.176-3.7a2.992 2.992 0 11-1.738-5.729c11.304-3.43 30.094-2.768 41.969 4.28a2.993 2.993 0 01-3.055 5.149m-.338 9.073a2.496 2.496 0 01-3.432.821c-8.599-5.286-21.713-6.817-31.886-3.729a2.498 2.498 0 01-3.114-1.662 2.497 2.497 0 011.664-3.111c11.622-3.527 26.07-1.82 35.947 4.25a2.495 2.495 0 01.821 3.43m-3.916 8.714a1.993 1.993 0 01-2.742.664c-7.514-4.593-16.973-5.63-28.111-3.086a1.993 1.993 0 11-.888-3.887c12.19-2.787 22.645-1.588 31.08 3.566a1.994 1.994 0 01.661 2.743M32 0C14.327 0 0 14.327 0 32c0 17.674 14.327 32 32 32 17.673 0 32-14.326 32-32C64 14.327 49.673 0 32 0"/></symbol><symbol viewBox="0 0 16 16" id="telegram" xmlns="http://www.w3.org/2000/svg"><path d="M14.629 3.698l-2.012 9.618c-.152.679-.548.848-1.11.528l-3.066-2.29-1.48 1.442c-.163.166-.3.305-.616.305l.22-3.165 5.683-5.204c.247-.223-.054-.347-.384-.123L4.839 9.29l-3.024-.959c-.658-.208-.67-.667.137-.986L13.78 2.727c.548-.208 1.027.124.849.971z"/></symbol><symbol viewBox="0 0 16 16" id="viber" xmlns="http://www.w3.org/2000/svg"><path d="M8 1.335c-1.071.013-3.374.19-4.662 1.37-.958.948-1.292 2.35-1.331 4.084-.033 1.728-.072 4.973 3.058 5.856v1.346s-.02.538.337.648c.438.14.688-.275 1.105-.72l.778-.879c2.142.178 3.782-.232 3.97-.293.435-.139 2.883-.451 3.283-3.696.41-3.351-.2-5.463-1.301-6.418h-.007c-.332-.306-1.668-1.279-4.652-1.29 0 0-.222-.014-.578-.008zm.037.942a7.02 7.02 0 01.488.011c2.527.007 3.732.767 4.017 1.023.927.794 1.405 2.697 1.055 5.495-.332 2.713-2.317 2.885-2.685 3.002-.156.05-1.6.406-3.42.289 0 0-1.356 1.634-1.78 2.055-.067.074-.146.095-.196.085-.071-.018-.093-.107-.089-.229l.013-2.233c-2.655-.733-2.498-3.5-2.47-4.946.033-1.446.304-2.628 1.113-3.43 1.088-.982 3.043-1.115 3.953-1.122zm.2 1.446a.166.166 0 100 .332 3.136 3.136 0 012.242.883c.606.588.9 1.378.912 2.411 0 .092.074.167.167.167V7.51a.167.167 0 00.168-.165 3.588 3.588 0 00-1.009-2.646c-.66-.645-1.496-.977-2.48-.977zm-2.198.382a.523.523 0 00-.342.067H5.69a2.61 2.61 0 00-.637.523 1.003 1.003 0 00-.256.525.71.71 0 00.026.302l.01.006c.172.504.396.988.67 1.444a8.48 8.48 0 001.29 1.762l.015.022.024.017.015.018.017.015c.532.505 1.127.94 1.769 1.295.734.4 1.18.588 1.447.667v.004c.078.024.15.034.221.034.228-.016.444-.109.613-.262a2.53 2.53 0 00.517-.638v-.004c.128-.241.085-.469-.1-.623-.37-.323-.77-.61-1.195-.857-.285-.155-.574-.061-.69.095l-.25.315c-.129.156-.361.134-.361.134l-.007.004C7.093 8.527 6.63 6.772 6.63 6.772s-.022-.239.139-.36l.312-.252c.15-.122.254-.41.094-.695a7.498 7.498 0 00-.856-1.194.475.475 0 00-.28-.167zm2.486.495c-.221 0-.221.334.003.334A2.098 2.098 0 0110 5.572 1.94 1.94 0 0110.5 7a.168.168 0 00.167.165l.007.009a.169.169 0 00.167-.167c.015-.662-.191-1.218-.595-1.663C9.84 4.9 9.273 4.65 8.549 4.6h-.024zm.274.898c-.228-.006-.236.335-.01.341.55.029.816.306.851.877a.166.166 0 00.165.163h.007a.168.168 0 00.16-.178c-.039-.744-.445-1.164-1.166-1.202H8.8z"/></symbol><symbol viewBox="0 0 24 24" id="vk" xmlns="http://www.w3.org/2000/svg"><path d="M21.579 6.855c.14-.465 0-.806-.662-.806h-2.193c-.558 0-.813.295-.953.619 0 0-1.115 2.719-2.695 4.482-.51.513-.743.675-1.021.675-.139 0-.341-.162-.341-.627V6.855c0-.558-.161-.806-.626-.806H9.642c-.348 0-.558.258-.558.504 0 .528.79.65.871 2.138v3.228c0 .707-.127.836-.407.836-.743 0-2.551-2.73-3.624-5.853-.209-.607-.42-.852-.98-.852H2.752c-.627 0-.752.295-.752.619 0 .582.743 3.462 3.461 7.27 1.812 2.602 4.363 4.012 6.687 4.012 1.393 0 1.565-.313 1.565-.853v-1.966c0-.626.133-.752.574-.752.324 0 .882.164 2.183 1.417 1.486 1.486 1.732 2.153 2.567 2.153h2.192c.626 0 .939-.313.759-.931-.197-.615-.907-1.51-1.849-2.57-.512-.603-1.277-1.253-1.51-1.578-.325-.42-.231-.604 0-.976.001 0 2.672-3.761 2.95-5.04z"/></symbol><symbol viewBox="0 0 16 16" id="whatsapp" xmlns="http://www.w3.org/2000/svg"><path fill-rule="evenodd" clip-rule="evenodd" d="M12.269 3.755A5.947 5.947 0 008.035 2 5.994 5.994 0 002.05 7.985a5.98 5.98 0 00.799 2.992L2 14.077l3.173-.832c.877.477 1.86.728 2.86.728h.002a5.993 5.993 0 005.533-8.276 5.953 5.953 0 00-1.3-1.942zm-4.234 9.208h-.002c-.89 0-1.765-.24-2.532-.694l-.181-.108-1.883.494.502-1.835-.118-.188a4.965 4.965 0 01-.76-2.647 4.982 4.982 0 016.88-4.597c.604.25 1.152.618 1.613 1.081a4.946 4.946 0 011.455 3.52 4.982 4.982 0 01-4.974 4.974zm2.729-3.726c-.15-.075-.885-.436-1.022-.486-.137-.05-.236-.075-.336.074-.1.15-.387.486-.474.586-.087.1-.175.112-.324.038-.15-.075-.631-.233-1.203-.742a4.505 4.505 0 01-.832-1.036c-.087-.15-.009-.231.066-.306.068-.066.15-.174.224-.262.075-.087.1-.149.15-.249.05-.1.025-.187-.013-.262-.037-.075-.337-.811-.461-1.11-.121-.29-.244-.252-.336-.256a6.418 6.418 0 00-.286-.005.55.55 0 00-.4.186c-.137.15-.523.512-.523 1.248s.536 1.447.61 1.547c.075.1 1.055 1.61 2.555 2.258.358.154.636.246.853.315.358.114.684.098.942.06.287-.043.885-.362 1.01-.711.124-.35.124-.649.087-.711-.038-.063-.138-.101-.287-.176z"/></symbol><symbol class="ssvg-inline--fa sfa-youtube sfa-w-18" viewBox="0 0 576 512" id="youtube" xmlns="http://www.w3.org/2000/svg"><path d="M549.655 124.083c-6.281-23.65-24.787-42.276-48.284-48.597C458.781 64 288 64 288 64S117.22 64 74.629 75.486c-23.497 6.322-42.003 24.947-48.284 48.597-11.412 42.867-11.412 132.305-11.412 132.305s0 89.438 11.412 132.305c6.281 23.65 24.787 41.5 48.284 47.821C117.22 448 288 448 288 448s170.78 0 213.371-11.486c23.497-6.321 42.003-24.171 48.284-47.821 11.412-42.867 11.412-132.305 11.412-132.305s0-89.438-11.412-132.305zm-317.51 213.508V175.185l142.739 81.205-142.739 81.201z"/></symbol></svg>